<mxfile host="app.diagrams.net" agent="Mozilla/5.0 (Windows NT 10.0; Win64; x64) AppleWebKit/537.36 (KHTML, like Gecko) Chrome/128.0.0.0 Safari/537.36" version="24.7.10">
  <diagram name="PÃ¡gina-1" id="B3ixSniqbuJTihNTmqyP">
    <mxGraphModel grid="1" page="1" gridSize="10" guides="1" tooltips="1" connect="1" arrows="1" fold="1" pageScale="1" pageWidth="827" pageHeight="1169" math="0" shadow="0">
      <root>
        <mxCell id="0" />
        <mxCell id="1" parent="0" />
        <mxCell id="YetGa8_mKAuDcTtQYd8Y-8" value="" style="rounded=0;whiteSpace=wrap;html=1;" vertex="1" parent="1">
          <mxGeometry x="200" y="80" width="490" height="400" as="geometry" />
        </mxCell>
        <mxCell id="13WUuwj861XtRdg_7pPC-1" value="Usuario Alumno" style="shape=umlActor;verticalLabelPosition=bottom;verticalAlign=top;html=1;" vertex="1" parent="1">
          <mxGeometry x="70" y="242.5" width="30" height="60" as="geometry" />
        </mxCell>
        <mxCell id="YetGa8_mKAuDcTtQYd8Y-1" value="Crear perfil" style="ellipse;whiteSpace=wrap;html=1;" vertex="1" parent="1">
          <mxGeometry x="250" y="302.5" width="130" height="65" as="geometry" />
        </mxCell>
        <mxCell id="YetGa8_mKAuDcTtQYd8Y-2" value="Personalizar perfil" style="ellipse;whiteSpace=wrap;html=1;" vertex="1" parent="1">
          <mxGeometry x="530" y="242.5" width="130" height="60" as="geometry" />
        </mxCell>
        <mxCell id="YetGa8_mKAuDcTtQYd8Y-3" value="Actualizar detalles del perfil" style="ellipse;whiteSpace=wrap;html=1;" vertex="1" parent="1">
          <mxGeometry x="250" y="182.5" width="130" height="60" as="geometry" />
        </mxCell>
        <mxCell id="YetGa8_mKAuDcTtQYd8Y-4" value="" style="endArrow=block;endFill=1;html=1;align=left;verticalAlign=top;rounded=0;exitX=0.5;exitY=0.5;exitDx=0;exitDy=0;exitPerimeter=0;entryX=0;entryY=0.5;entryDx=0;entryDy=0;" edge="1" parent="1" source="13WUuwj861XtRdg_7pPC-1" target="YetGa8_mKAuDcTtQYd8Y-1">
          <mxGeometry x="-1" relative="1" as="geometry">
            <mxPoint x="350" y="420" as="sourcePoint" />
            <mxPoint x="510" y="420" as="targetPoint" />
          </mxGeometry>
        </mxCell>
        <mxCell id="YetGa8_mKAuDcTtQYd8Y-9" value="" style="endArrow=block;endFill=1;html=1;align=left;verticalAlign=top;rounded=0;exitX=0.5;exitY=0.5;exitDx=0;exitDy=0;exitPerimeter=0;entryX=0;entryY=0.5;entryDx=0;entryDy=0;" edge="1" parent="1" source="13WUuwj861XtRdg_7pPC-1" target="YetGa8_mKAuDcTtQYd8Y-3">
          <mxGeometry x="-1" relative="1" as="geometry">
            <mxPoint x="95" y="283" as="sourcePoint" />
            <mxPoint x="260" y="345" as="targetPoint" />
          </mxGeometry>
        </mxCell>
        <mxCell id="YetGa8_mKAuDcTtQYd8Y-10" value="Extends" style="endArrow=block;endSize=16;endFill=0;html=1;rounded=0;exitX=0;exitY=0.5;exitDx=0;exitDy=0;entryX=1;entryY=0.5;entryDx=0;entryDy=0;" edge="1" parent="1" source="YetGa8_mKAuDcTtQYd8Y-2" target="YetGa8_mKAuDcTtQYd8Y-1">
          <mxGeometry width="160" relative="1" as="geometry">
            <mxPoint x="510" y="340" as="sourcePoint" />
            <mxPoint x="670" y="340" as="targetPoint" />
          </mxGeometry>
        </mxCell>
        <mxCell id="YetGa8_mKAuDcTtQYd8Y-12" value="Extends" style="endArrow=block;endSize=16;endFill=0;html=1;rounded=0;exitX=0;exitY=0.5;exitDx=0;exitDy=0;entryX=1;entryY=0.5;entryDx=0;entryDy=0;" edge="1" parent="1" source="YetGa8_mKAuDcTtQYd8Y-2" target="YetGa8_mKAuDcTtQYd8Y-3">
          <mxGeometry width="160" relative="1" as="geometry">
            <mxPoint x="480" y="283" as="sourcePoint" />
            <mxPoint x="390" y="345" as="targetPoint" />
          </mxGeometry>
        </mxCell>
      </root>
    </mxGraphModel>
  </diagram>
</mxfile>
